<svg viewBox="0 0 608.37335 540.03998" xmlns="http://www.w3.org/2000/svg" width="608.37335" height="540.03998">
  <g transform="matrix(1.33333 0 0 -1.33333 0 540.04)">
    <path fill="#e4002b" d="M4.93711 55.2754c-6.58242-11.4004-6.58242-25.4481 0-36.8496C11.5195 7.02344 23.6852 0 36.8508 0H419.433c13.166 0 25.331 7.02344 31.914 18.4258 6.582 11.4015 6.582 25.4492 0 36.8496L260.055 386.602c-6.582 11.402-18.748 18.425-31.913 18.425s-25.331-7.023-31.913-18.425L4.93711 55.2754"/>
    <path fill="#ffcd00" d="M409.614 42.5195H46.6699L228.142 356.838 409.614 42.5195"/>
    <path d="M187.434 198.482c-8.005 3.973-17.234 4.713-25.771 2.069-5.274 1.185-10.699 1.542-16.083 1.06 2.759-2.127 5.462-4.326 8.104-6.595.421-3.072.676-6.164.764-9.263-.188-4.007-.23-8.019-.127-12.027-.038-5.859.321-11.714 1.074-17.525.076-.556.212-1.103.409-1.629.895-1.83 2.517-3.198 4.471-3.773 1.955-.575 4.06-.304 5.803.748.813.433 1.697.714 2.61.83.121.01.241.047.346.109.822.5 1.34 1.381 1.377 2.342-.139 1.049-.121 2.113.051 3.156.039 2.368.593 4.7 1.626 6.832.829 2.2 1.503 4.454 2.017 6.747 1.565.665 3.097 1.406 4.591 2.218 3.26-5.083 5.016-10.984 5.067-17.021l.133-7.153c.067-2.744.103-5.49.107-8.235.006-.229.014-.46.023-.688.303-4.027 1.426-7.948 3.3-11.525-6.96-1.167-13.716-3.327-20.062-6.413-.011-.006-.023-.01-.034-.016-2.291-1.031-4.434-2.367-6.367-3.973-.437-.359-.817-.781-1.125-1.255-.016-.026-.034-.053-.05-.08-.841-1.438-1.078-3.149-.658-4.762 1.705-7.375 3.93-14.6209 6.658-21.6834l.858-2.3282c.545-1.498 1.152-2.9726 1.82-4.4199.186-.3867.404-.7578.651-1.1074 3.505-5.0313 9.06-8.2481 15.167-8.7852l-.024 10.8379-4.531-.0293c-.865 2.2344-2.7 3.9532-4.986 4.67-.155.046-.3.1183-.429.214-.498.3797-.838.9305-.952 1.5457-.003.0149-.005.0293-.007.043-.653 5.2363-1.496 10.4458-2.533 15.6188l-.158.682c-.11.514 0 1.051.302 1.48.303.43.772.715 1.293.785 3.06.38 6.09.963 9.071 1.75 4.151.135 8.258.883 12.191 2.215 1.289.438 2.559.922 3.81 1.456.904.408 1.771.89 2.594 1.443.995-.799 2.051-1.52 3.156-2.154.145-.084.275-.188.388-.309.882-.975 1.628-2.063 2.222-3.236 1.16-2.295 2.389-4.555 3.685-6.776l.02-.031c6.41-9.8945 11.647-20.5 15.603-31.6043l.01-.0246c.678-1.7187.508-3.6543-.459-5.2273-.061-.093-.13-.1817-.205-.2657-2.826-3.1066-4.994-6.757-6.369-10.7257l12.043-.0879.181 2.2402c.02.2813.034.5606.043.8418.034 1.8223.692 3.5781 1.862 4.9766.246.3007.535.5644.858.7793 1.798 1.2265 2.502 3.5382 1.696 5.5586-.02.0468-.041.0937-.064.1386-.975 1.8586-1.902 3.7422-2.778 5.6485l-.002.0039c-1.394 2.9972-2.299 6.1984-2.679 9.4824-.032.2871-.074.5742-.128.8586-.513 2.4902-1.13 4.9578-1.845 7.3973-.466 1.8203-.954 3.6328-1.465 5.4394-.715 3.0633-1.355 6.1433-1.919 9.2383-.405 2.764-.905 5.512-1.5 8.241 11.501-1.77 23.214-1.646 34.676.368 1.949.342 3.888.735 5.816 1.178 1.009-4.163 2.048-8.318 3.117-12.465l.004-.011c.971-3.547 2.172-7.0278 3.594-10.4184.462-1.1231.474-2.3789.033-3.5098-1.03-2.6406-2.318-5.1699-3.85-7.5527-2.224-3.3164-4.574-6.5469-7.047-9.6817-2.199-2.6179-4.159-5.4258-5.862-8.3914-.043-.0734-.09-.1437-.139-.2121-2.491-3.0859-4.545-6.498-6.106-10.1426l12.68-.155.426 4.6121.14 1.1894c.012.0918.047.1797.103.2539.099.1289.233.2266.385.2813.063.0175.124.0351.187.0519l.049.0145c.263.084.515.2023.748.3515 1.001.6426 1.758 1.6047 2.145 2.7297.081.2098.16.4207.238.6317 1.422 3.4433 3.211 6.7238 5.34 9.7824 3.897 5.4226 8.637 10.1883 14.04 14.1152.015.0117.033.0235.049.034 1.278.8711 1.929 2.4082 1.665 3.9316-.35 2.0833-.737 4.1602-1.16 6.2305l-.004.016c-.175.785-.31 1.579-.399 2.379-.438 5.568 2.075 10.959 6.621 14.204 1.451-2.098 3.063-4.079 4.823-5.926l.003-.004c1.328-1.377 2.753-2.657 4.264-3.831 2.441-1.731 4.813-3.557 7.11-5.475 1.667-1.427 3.279-2.9177 4.834-4.4665l.006-.0059c.865-.8437 1.711-1.707 2.537-2.5878.059-.0653.116-.1329.171-.2032 1.018-1.332 1.877-2.7812 2.557-4.3144l.282-.5879c.524-1.0762.999-2.1758 1.422-3.2969.644-1.8894 1.253-3.7918 1.824-5.7051l.536-1.7429c.891-2.8215 1.717-5.6633 2.477-8.5227.466-1.793.17-3.6973-.812-5.2676-.003-.0039-.006-.0066-.008-.0097-1.984-2.6114-3.57-5.502-4.704-8.5782l11.835-.1289.109 5.3242c.002.0723 0 .1446-.005.2188-.051.3555.115.707.423.8945.002.0012.004.002.007.0039.821.4395 1.533 1.0625 2.077 1.8203.007.0079.012.0168.018.0254.624.9465.785 2.125.439 3.2032-1.88 6.1457-3.688 12.3125-5.42 18.5019l-.003.0117-1.711 5.7414-.002.0047c-.854 2.8086-1.111 5.7637-.758 8.6787.215 1.374-.175 2.774-1.069 3.839-1.525 1.879-3.027 3.775-4.505 5.691-.074.096-.147.194-.215.293-2.635 3.834-4.342 8.227-4.987 12.833-.355 3.163-.451 6.351-.287 9.529.28 4.341.057 8.699-.665 12.988-.144.822-.337 1.636-.575 2.435-1.572 5.054-4.227 9.704-7.78 13.625 2.537.133 5.056-.504 7.223-1.829.307-.186.599-.397.87-.633.681-.609 1.267-1.318 1.735-2.103 2.119-3.921 3.546-8.175 4.221-12.579 1.274-9.338 1.846-18.757 1.712-28.18l15.779.254c-.354 8.014-1.063 16.008-2.125 23.959-.502 6.09-2.666 11.926-6.255 16.871-1.81 2.755-4.271 5.023-7.164 6.604-5.948 2.888-12.776 3.39-19.083 1.4-4.041 1.291-8.102 2.52-12.18 3.688-6.26 1.828-12.892 1.955-19.217.368-4.178-.909-8.399-1.611-12.646-2.101-1.176 4.872-2.408 9.731-3.697 14.574-.372 1.053-.765 2.097-1.178 3.133-.865 1.836-1.452 3.791-1.741 5.8-.302 2.012-.531 4.034-.686 6.062-.321 2.3-.849 4.564-1.579 6.769-.978 3.44-2.279 6.779-3.884 9.975-1.356 2.115-1.796 4.69-1.221 7.136.878 2.63 1.358 5.377 1.426 8.149-.069 2.28-.571 4.526-1.477 6.619-.403.795-.951 1.506-1.616 2.098-2.05 1.396-4.559 1.947-7.005 1.54-1.356-.169-2.69-.476-3.985-.913-2.265-.616-3.816-2.699-3.756-5.046-.053-.997.067-1.996.356-2.953.058-.607.149-1.212.274-1.809-.42-1.329-.503-2.74-.244-4.109.143-2.007.644-3.972 1.48-5.802.486-.608 1.204-.985 1.981-1.041.825-.135 1.663-.183 2.5-.144.259-1.866.017-3.768-.702-5.51-2.897-2.304-4.874-5.569-5.572-9.204-1.33-7.776-2.363-15.599-3.096-23.455-3.906-1.637-7.637-3.665-11.137-6.05-4.103 3.503-7.682 7.578-10.629 12.097-1.689 2.481-3.637 4.772-5.814 6.836-2.557 2.223-5.357 4.149-8.35 5.738"/>
  </g>
</svg>