<svg viewBox="0 0 500 500"
   xmlns:dc="http://purl.org/dc/elements/1.1/"
   xmlns:cc="http://creativecommons.org/ns#"
   xmlns:rdf="http://www.w3.org/1999/02/22-rdf-syntax-ns#"
   xmlns:svg="http://www.w3.org/2000/svg"
   xmlns="http://www.w3.org/2000/svg"
   xmlns:sodipodi="http://sodipodi.sourceforge.net/DTD/sodipodi-0.dtd"
   xmlns:inkscape="http://www.inkscape.org/namespaces/inkscape"
   width="500"
   height="500"
   id="svg2"
   sodipodi:version="0.32"
   inkscape:version="0.48.4 r9939"
   version="1.0"
   sodipodi:docname="AJAX.svg"
   inkscape:output_extension="org.inkscape.output.svg.inkscape">
  <defs
     id="defs4">
    <inkscape:perspective
       sodipodi:type="inkscape:persp3d"
       inkscape:vp_x="0 : 300.5 : 1"
       inkscape:vp_y="0 : 1000 : 0"
       inkscape:vp_z="601 : 300.5 : 1"
       inkscape:persp3d-origin="300.5 : 200.33333 : 1"
       id="perspective3380" />
    <inkscape:perspective
       id="perspective3990"
       inkscape:persp3d-origin="375 : 250 : 1"
       inkscape:vp_z="750 : 375 : 1"
       inkscape:vp_y="0 : 1000 : 0"
       inkscape:vp_x="0 : 375 : 1"
       sodipodi:type="inkscape:persp3d" />
  </defs>
  <sodipodi:namedview
     id="base"
     pagecolor="#ffffff"
     bordercolor="#666666"
     borderopacity="1.0"
     gridtolerance="10000"
     guidetolerance="10"
     objecttolerance="10"
     inkscape:pageopacity="0.0"
     inkscape:pageshadow="2"
     inkscape:zoom="0.81832973"
     inkscape:cx="206.86241"
     inkscape:cy="172.52938"
     inkscape:document-units="px"
     inkscape:current-layer="layer1"
     width="601px"
     height="601px"
     inkscape:window-width="1280"
     inkscape:window-height="1001"
     inkscape:window-x="-8"
     inkscape:window-y="-8"
     showgrid="false"
     fit-margin-top="0"
     fit-margin-left="0"
     fit-margin-right="0"
     fit-margin-bottom="0"
     inkscape:window-maximized="1"
     showguides="true"
     inkscape:guide-bbox="true" />
  
  <g
     inkscape:label="Layer 1"
     inkscape:groupmode="layer"
     id="layer1"
     transform="translate(2503.2096,3754.6446)">
    <rect
       style="color:#000000;fill:#000000;fill-opacity:1;fill-rule:nonzero;stroke:none;stroke-width:0.8735441;marker:none;visibility:visible;display:inline;overflow:visible"
       id="rect3653"
       width="0"
       height="27.202072"
       x="578.73834"
       y="298.1684"
       rx="249.48199"
       ry="27.202072" />
    <path
       inkscape:connector-curvature="0"
       style="fill:#000000;fill-opacity:1;fill-rule:nonzero;stroke:none"
       d="m -2503.2096,-3754.6446 500,0 0,500 -500,0 0,-500 z"
       id="path11" />
    <path
       style="fill:#ffffff;fill-rule:nonzero;stroke:none"
       d="m -2003.2096,-3707.0196 c 0,-12.6294 -5.0077,-24.7595 -13.9375,-33.6875 -8.9276,-8.9317 -21.058,-13.9375 -33.6875,-13.9375 l -404.75,0 c -12.6295,0 -24.7599,5.0058 -33.6875,13.9375 -8.9298,8.928 -13.9375,21.0581 -13.9375,33.6875 l 0,404.75 c 0,12.6294 5.0077,24.7595 13.9375,33.6875 8.9276,8.9317 21.058,13.9375 33.6875,13.9375 l 404.75,0 c 12.6295,0 24.7599,-5.0058 33.6875,-13.9375 8.9298,-8.928 13.9375,-21.0581 13.9375,-33.6875 z"
       id="path13-1"
       inkscape:connector-curvature="0"
       sodipodi:nodetypes="scsscsscsscss" />
    <path
       style="fill:#000000;fill-rule:nonzero;stroke:none"
       d="m -2455.5864,-3730.8346 c -13.1524,0 -23.8128,10.6616 -23.8128,23.8128 l 0,404.7544 c 0,13.1512 10.6604,23.8128 23.8128,23.8128 l 404.7544,0 c 13.1524,0 23.8128,-10.6616 23.8128,-23.8128 l 0,-404.7544 c 0,-13.1512 -10.6604,-23.8128 -23.8128,-23.8128 z"
       id="path15-7"
       inkscape:connector-curvature="0"
       sodipodi:nodetypes="sssssssss" />
    <path
       sodipodi:nodetypes="ccccc"
       inkscape:connector-curvature="0"
       id="path3008"
       d="m -2155.4196,-3734.6446 27.9,0 -330.6,460 -27.9,0 z"
       style="fill:#ffffff;fill-opacity:1;stroke:none" />
    <path
       style="fill:#ffffff;fill-opacity:1;stroke:none"
       d="m -2350.9996,-3274.6446 -27.9,0 330.6,-460 27.9,0 z"
       id="path3039"
       inkscape:connector-curvature="0"
       sodipodi:nodetypes="ccccc" />
    <path
       sodipodi:nodetypes="ccccc"
       inkscape:connector-curvature="0"
       id="path3054"
       d="m -2404.5596,-3274.6446 -27.9,0 330.6,-460 27.9,0 z"
       style="fill:#ffffff;fill-opacity:1;stroke:none" />
  </g>
</svg>