<svg viewBox="0 0 500 500"
   width="500"
   height="500"
   id="svg2"
   sodipodi:version="0.32"
   inkscape:version="1.2.2 (732a01da63, 2022-12-09)"
   version="1.0"
   sodipodi:docname="Sweden_road_sign_G10.svg"
   inkscape:output_extension="org.inkscape.output.svg.inkscape"
   xmlns:inkscape="http://www.inkscape.org/namespaces/inkscape"
   xmlns:sodipodi="http://sodipodi.sourceforge.net/DTD/sodipodi-0.dtd"
   xmlns="http://www.w3.org/2000/svg"
   xmlns:svg="http://www.w3.org/2000/svg"
   xmlns:rdf="http://www.w3.org/1999/02/22-rdf-syntax-ns#"
   xmlns:cc="http://creativecommons.org/ns#"
   xmlns:dc="http://purl.org/dc/elements/1.1/">
  <defs
     id="defs4">
    <inkscape:perspective
       sodipodi:type="inkscape:persp3d"
       inkscape:vp_x="0 : 300.5 : 1"
       inkscape:vp_y="0 : 1000 : 0"
       inkscape:vp_z="601 : 300.5 : 1"
       inkscape:persp3d-origin="300.5 : 200.33333 : 1"
       id="perspective3380" />
    <inkscape:perspective
       id="perspective3990"
       inkscape:persp3d-origin="375 : 250 : 1"
       inkscape:vp_z="750 : 375 : 1"
       inkscape:vp_y="0 : 1000 : 0"
       inkscape:vp_x="0 : 375 : 1"
       sodipodi:type="inkscape:persp3d" />
  </defs>
  <sodipodi:namedview
     id="base"
     pagecolor="#ffffff"
     bordercolor="#666666"
     borderopacity="1.0"
     gridtolerance="10000"
     guidetolerance="10"
     objecttolerance="10"
     inkscape:pageopacity="0.0"
     inkscape:pageshadow="2"
     inkscape:zoom="1.6366595"
     inkscape:cx="106.00861"
     inkscape:cy="362.62889"
     inkscape:document-units="px"
     inkscape:current-layer="layer1"
     width="601px"
     height="601px"
     inkscape:window-width="1920"
     inkscape:window-height="991"
     inkscape:window-x="-9"
     inkscape:window-y="-9"
     showgrid="false"
     fit-margin-top="0"
     fit-margin-left="0"
     fit-margin-right="0"
     fit-margin-bottom="0"
     inkscape:window-maximized="1"
     showguides="true"
     inkscape:guide-bbox="true"
     inkscape:showpageshadow="2"
     inkscape:pagecheckerboard="0"
     inkscape:deskcolor="#d1d1d1" />
  
  <g
     inkscape:label="Layer 1"
     inkscape:groupmode="layer"
     id="layer1"
     transform="translate(2554.6937,3732.4888)">
    <rect
       style="color:#000000;fill:#000000;fill-opacity:1;fill-rule:nonzero;stroke:none;stroke-width:0.8735441;marker:none;visibility:visible;display:inline;overflow:visible"
       id="rect3653"
       width="0"
       height="27.202072"
       x="578.73834"
       y="298.1684"
       rx="249.48199"
       ry="27.202072" />
    <path
       inkscape:connector-curvature="0"
       style="fill:#0c479d;fill-opacity:1;fill-rule:nonzero;stroke:none"
       d="m -2554.6937,-3732.4888 500,0 0,500 -500,0 0,-500 z"
       id="path11" />
    <path
       style="fill:#ffffff;fill-rule:nonzero;stroke:none"
       d="m -2554.6937,-3263.7388 c 0,17.2589 13.9913,31.25 31.25,31.25 l 437.5,0 c 17.2587,0 31.25,-13.9911 31.25,-31.25 l 0,-437.5 c 0,-17.2589 -13.9913,-31.25 -31.25,-31.25 l -437.5,0 c -17.2587,0 -31.25,13.9911 -31.25,31.25 z"
       id="path13"
       inkscape:connector-curvature="0"
       sodipodi:nodetypes="sssssssss" />
    <path
       style="fill:#0c479d;fill-opacity:1;fill-rule:nonzero;stroke:none"
       d="m -2070.3187,-3701.2388 c 0,-8.6288 -6.9951,-15.625 -15.625,-15.625 l -437.5,0 c -8.6299,0 -15.625,6.9962 -15.625,15.625 l 0,437.5 c 0,8.6288 6.9951,15.625 15.625,15.625 l 437.5,0 c 8.6299,0 15.625,-6.9962 15.625,-15.625 z"
       id="path15"
       inkscape:connector-curvature="0"
       sodipodi:nodetypes="sssssssss" />
    <path
       inkscape:connector-curvature="0"
       style="fill:#ffffff;fill-rule:nonzero;stroke:none"
       d="m -2148.444,-3638.7388 -312.5,0 0,312.5 312.5,0 0,-312.5 z"
       id="path17" />
    <path
       fill-rule="nonzero"
       fill="#231f20"
       fill-opacity="1"
       d="m -2368.7913,-3494.054 h -9.6144 l -2.4623,35.579 -49.8379,0.098 22.2485,31.6302 c 7.7095,-5.7129 17.975,-6.6885 26.6602,-2.5078 7.8968,3.2979 16.8148,3.2979 24.7107,-0.089 7.896,-3.2979 16.7675,-3.3443 24.7099,0 7.8959,3.2969 16.8139,3.2969 24.7098,-0.089 7.8496,-3.3442 16.7675,-3.3442 24.6644,-0.089 7.9423,3.3442 16.8139,3.2979 24.7098,0 7.896,-3.3442 16.8139,-3.3442 24.7099,-0.089 7.9432,3.297 16.8147,3.297 24.7107,-0.089 9.2889,-4.1798 20.0654,-3.2514 28.4723,2.4623 2.9724,-7.1067 4.2726,-14.7708 3.9016,-22.4349 h -18.1614 l -2.8332,-7.8032 h -11.3793 l -0.1427,-98.2365 h -7.1531 l 0.1427,98.2829 h -7.1067 l -3.2051,-12.8196 -79.425,0.098 9.057,-33.8141 h -21.3656 l -9.057,33.8605 h -20.2982 l -2.7868,-24.1988 h -11.4721 l -0.098,-67.2565 h -7.104 l 0.098,67.3028"
       id="path29887"
       style="stroke-width:11.8906;fill:#000000" />
  </g>
</svg>