<svg viewBox="0 0 500 500"
   xmlns:dc="http://purl.org/dc/elements/1.1/"
   xmlns:cc="http://creativecommons.org/ns#"
   xmlns:rdf="http://www.w3.org/1999/02/22-rdf-syntax-ns#"
   xmlns:svg="http://www.w3.org/2000/svg"
   xmlns="http://www.w3.org/2000/svg"
   xmlns:sodipodi="http://sodipodi.sourceforge.net/DTD/sodipodi-0.dtd"
   xmlns:inkscape="http://www.inkscape.org/namespaces/inkscape"
   width="500"
   height="500"
   id="svg2"
   sodipodi:version="0.32"
   inkscape:version="0.48.4 r9939"
   version="1.0"
   sodipodi:docname="AJAX.svg"
   inkscape:output_extension="org.inkscape.output.svg.inkscape">
  <defs
     id="defs4">
    <inkscape:perspective
       sodipodi:type="inkscape:persp3d"
       inkscape:vp_x="0 : 300.5 : 1"
       inkscape:vp_y="0 : 1000 : 0"
       inkscape:vp_z="601 : 300.5 : 1"
       inkscape:persp3d-origin="300.5 : 200.33333 : 1"
       id="perspective3380" />
    <inkscape:perspective
       id="perspective3990"
       inkscape:persp3d-origin="375 : 250 : 1"
       inkscape:vp_z="750 : 375 : 1"
       inkscape:vp_y="0 : 1000 : 0"
       inkscape:vp_x="0 : 375 : 1"
       sodipodi:type="inkscape:persp3d" />
  </defs>
  <sodipodi:namedview
     id="base"
     pagecolor="#ffffff"
     bordercolor="#666666"
     borderopacity="1.0"
     gridtolerance="10000"
     guidetolerance="10"
     objecttolerance="10"
     inkscape:pageopacity="0.0"
     inkscape:pageshadow="2"
     inkscape:zoom="0.81832973"
     inkscape:cx="243.57043"
     inkscape:cy="230.75211"
     inkscape:document-units="px"
     inkscape:current-layer="layer1"
     width="601px"
     height="601px"
     inkscape:window-width="1280"
     inkscape:window-height="1001"
     inkscape:window-x="-8"
     inkscape:window-y="-8"
     showgrid="false"
     fit-margin-top="0"
     fit-margin-left="0"
     fit-margin-right="0"
     fit-margin-bottom="0"
     inkscape:window-maximized="1"
     showguides="true"
     inkscape:guide-bbox="true" />
  
  <g
     inkscape:label="Layer 1"
     inkscape:groupmode="layer"
     id="layer1"
     transform="translate(2554.6937,3732.4888)">
    <rect
       style="color:#000000;fill:#000000;fill-opacity:1;fill-rule:nonzero;stroke:none;stroke-width:0.8735441;marker:none;visibility:visible;display:inline;overflow:visible"
       id="rect3653"
       width="0"
       height="27.202072"
       x="578.73834"
       y="298.1684"
       rx="249.48199"
       ry="27.202072" />
    <path
       inkscape:connector-curvature="0"
       style="fill:#0c479d;fill-opacity:1;fill-rule:nonzero;stroke:none"
       d="m -2554.6937,-3732.4888 500,0 0,500 -500,0 0,-500 z"
       id="path11" />
    <path
       style="fill:#ffffff;fill-rule:nonzero;stroke:none"
       d="m -2554.6937,-3263.7388 c 0,17.2589 13.9913,31.25 31.25,31.25 l 437.5,0 c 17.2587,0 31.25,-13.9911 31.25,-31.25 l 0,-437.5 c 0,-17.2589 -13.9913,-31.25 -31.25,-31.25 l -437.5,0 c -17.2587,0 -31.25,13.9911 -31.25,31.25 z"
       id="path13"
       inkscape:connector-curvature="0"
       sodipodi:nodetypes="sssssssss" />
    <path
       style="fill:#0c479d;fill-opacity:1;fill-rule:nonzero;stroke:none"
       d="m -2070.3187,-3701.2388 c 0,-8.6288 -6.9951,-15.625 -15.625,-15.625 l -437.5,0 c -8.6299,0 -15.625,6.9962 -15.625,15.625 l 0,437.5 c 0,8.6288 6.9951,15.625 15.625,15.625 l 437.5,0 c 8.6299,0 15.625,-6.9962 15.625,-15.625 z"
       id="path15"
       inkscape:connector-curvature="0"
       sodipodi:nodetypes="sssssssss" />
    <path
       inkscape:connector-curvature="0"
       style="fill:#ffffff;fill-rule:nonzero;stroke:none"
       d="m -2460.944,-3638.7388 312.5,0 0,312.5 -312.5,0 0,-312.5 z"
       id="path17" />
    <path
       style="fill:#000000;fill-rule:nonzero;stroke:none"
       d="m -2304.7092,-3584.1138 -138.1875,96.7813 18.4062,26.2812 24.4688,-17.1562 0,97.3437 190.625,0 0,-97.3437 24.5,17.1562 18.4062,-26.2812 z"
       id="path19-0"
       inkscape:connector-curvature="0"
       sodipodi:nodetypes="cccccccccc" />
    <rect
       style="opacity:0.98999999000000005;fill:#ffffff;fill-opacity:1;stroke:none"
       id="rect3889"
       width="80.199997"
       height="31.25"
       x="-2344.7939"
       y="-3478.2078" />
  </g>
</svg>